<svg xmlns="http://www.w3.org/2000/svg" width="600" height="187" viewBox="0 0 600 186.5"><style>.a{fill:#FAF3D3;}</style><path d="M158.3 87.2c0-4.8 0.3-8.6 0.9-10.9 0.2-0.6 0.7-1 1.6-0.7 0.8 0.2 2.8 1.9 2.7 2.5 -0.4 2.7-0.5 6-0.5 9.7 0 20.3 5.3 53.1 12.8 68.3 1.7 3.2 3.2 5.5 5.1 6.7l0.1 0.1c13.8 2 38.1-59.8 45.2-89.6 0.3-0.5 0.7-3.6 1.8-2.9 1 0.4 1.3 3.3 0.9 5.8 -2 11.1-25.8 89.9-45.3 89.4 -0.7 0-4.8-0.8-5.5-1.5C165.3 154.7 158.3 110 158.3 87.2z"/><path d="M226.7 134.5c-0.3-0.9-0.5-2-0.5-3 0-4.6 3.1-9.2 8.2-9.4 3.2 0 6.2 3.1 5.1 6.1 -1.3 3.3-5.8 5.8-9.4 5.8 0.3 2 3.9 5.3 7.6 5.3 9.8 0 17-7.3 21.4-11.8 2.4-2.5 2-0.1 0.5 2.8 -2.9 6-9.5 11.1-16.7 11.5C236.7 142 228.8 140.9 226.7 134.5zM229.9 131.4c4.4-2 7.3-4.8 6.1-5.9C233.9 123.3 229.8 128.8 229.9 131.4zM231.8 117.2c1.1-1.5 6.3-4.4 8.1-5.8 0.9-0.7 4.4 1.3 3.4 2.7 -7.1 4.3-9.8 6-11.2 4.9C231.1 118.4 231.4 117.5 231.8 117.2z"/><path d="M255.4 166.9c1.6-8 9.9-17.7 20.3-25.5l2.6-1.9 -0.1-0.4 -0.2-8.5v-0.5l-0.3 0.2c-0.9 1.1-2.2 2.4-3.5 3.5 -1.8 1.5-3.5 2.8-5.3 3.6 -0.9 0.3-2.1 0.7-3.4 0.7 -0.9 0-2-0.2-3-0.7 -0.4-0.2-0.7-0.4-0.9-0.6 -1.2-0.9-2.3-2-3-3 -0.9-1.3-1.3-2.7-1.3-3.9 0-1.5 0.5-2.9 1.6-3.9 1.8-1.3 3.7-2.4 7.2-2.4 2.7 0 6.1 0.6 10 2.1l0.1 0.1 0.2-0.1c0.7-0.9 1.1-1.8 1.5-2.2 0.6-1 3.5 0.6 3.6 2.1 0.1 0.2 0.6 5.1 0.7 11.1v0.4l0.1-0.1c2.8-1.7 16.4-7.9 18.4-6.5 1 0.7 0.8 1 0 1.2 -4.1 1.2-11 5-15.4 7.6l-3 2.1 -0.1 1.2 -0.3 9.7c-0.8 13.1-4.2 26.7-13.2 28.5 -2.6 0.5-6.2-0.5-9.1-3.4C256.5 174.4 254.9 170.7 255.4 166.9zM278 144.1l-2.2 1.9c-8.8 7.3-15.5 16.1-16.6 23 -0.6 3.2 0.9 5.8 2.2 7.3 1.6 1.5 3.5 2.3 4.8 2C275.2 176.4 278.2 157.5 278 144.1zM265.9 134.5c1.5-0.7 3.3-2 5-3.4l2.3-2.2 1-1.1 -0.7-0.2c-2-0.5-3.7-0.8-5.3-0.8 -2.8 0-4.9 0.8-6 2 -0.8 0.9-1.1 1.9-1.1 2.9 0 1 0.4 2.1 1 2.9l0.7 0.5c0 0 0.2 0.1 0.8 0.1C264.3 135.1 265 134.9 265.9 134.5z"/><path d="M296.7 134.5c-0.3-0.9-0.5-2-0.5-3 0-4.6 3.1-9.2 8.2-9.4 3.2 0 6.2 3.1 5.1 6.1 -1.3 3.3-5.8 5.8-9.4 5.8 0.3 2 3.9 5.3 7.6 5.3 9.8 0 17-7.3 21.4-11.8 2.4-2.5 2-0.1 0.5 2.8 -2.9 6-9.5 11.1-16.7 11.5C306.6 142 298.7 140.9 296.7 134.5zM299.9 131.4c4.4-2 7.3-4.8 6.1-5.9C303.8 123.3 299.8 128.8 299.9 131.4zM301.8 117.2c1.1-1.5 6.3-4.4 8.1-5.8 0.9-0.7 4.4 1.3 3.4 2.7 -7.1 4.3-9.8 6-11.2 4.9C301 118.4 301.3 117.5 301.8 117.2z"/><path d="M328.3 136.4c0-6 0.1-11.6 0.2-15.7 0.1-4.9 0.3-11 0.6-17.3 -8.6 0.7-16.7 1.3-25 2.8 -2 0.3-4.2-2.4-2.4-2.8 7.4-1.3 14.7-2.2 27.5-3.2 0.4-8.1 0.9-16.3 1.4-22.7 -0.1-1.7 3.9-1 4.3 1 -0.7 5.2-1.3 13.3-1.8 21.4 0.9 0 2-0.1 3-0.2 8.8-0.6 20.7-1.6 30.8-1.6 5.9 0 11.3 0.3 15 1.1 0.9 0.4 2 1.5 2.4 2.1 0.1 0.8-0.4 1.2-1.2 1.1 -4.7-0.9-10.5-1.2-16.7-1.2 -11.1 0-23.2 1-31.1 1.7 -0.8 0.1-1.6 0.2-2.4 0.2l-0.7 17.4c-0.1 6.6-0.4 16.4-0.4 25.8 0 10.6 0.4 20.8 1.8 25.6 0.3 2.4-2.9 0.2-3.6-2C328.7 166.4 328.3 150.3 328.3 136.4z"/><path d="M340.9 132.9c0-2.3 1.1-4.6 3.7-6.3 2.8-1.9 6.3-2.8 10-2.8 2.9 0 5.8 0.6 8.4 1.8h0.1l1.8-2.4c0.6-1.1 4.2 1.1 3.4 2.4 -0.5 1.6-1.5 3.4-1.7 5.4 -0.1 1.8 0.4 3.8 2.3 4.4 5.3 1 14.2-4.3 18-8.4 1.8-1.8 3.3 0.8-2.4 6.5 -2.6 2.6-9.8 5.9-14.1 4.9 -3.4-0.8-6-2.8-7.4-6.5 -2.9 2.6-9.8 7.9-15.3 7.9 -1.3 0-2.6-0.3-3.7-1C341.9 137 340.9 135.1 340.9 132.9zM361.2 127.6c-1-0.3-2.5-0.5-4-0.5 -5.2 0-12 2-13.2 6.7 -0.3 1.2 0.3 2.4 1.9 2.5C350.8 135.7 357.6 131.4 361.2 127.6z"/><path d="M387.2 142.1c-2-3.1-2.7-10.5-2.7-19.1 0-17.2 2.9-39.5 4.3-43.9 0.1-0.6 0.7-0.7 1.8-0.3 1 0.5 1.9 1.4 1.9 1.9 -0.6 2-3.6 26.9-3.6 44.8 0 9.2 0.8 16.6 3.1 18.2 5.4 3.3 18-13.6 19.5-15.6 1-1.5 1.2 1.1 0.8 2.4 -1.9 5.2-10.2 16.4-16.7 16.4C392.1 146.9 389.2 145 387.2 142.1z"/><path d="M410.8 134.5c-0.3-0.9-0.5-2-0.5-3 0-4.6 3.1-9.2 8.2-9.4 3.2 0 6.2 3.1 5.1 6.1 -1.3 3.3-5.8 5.8-9.4 5.8 0.3 2 3.9 5.3 7.6 5.3 9.8 0 17-7.3 21.4-11.8 2.4-2.5 2-0.1 0.5 2.8 -2.9 6-9.5 11.1-16.7 11.5C420.8 142 412.9 140.9 410.8 134.5zM414 131.4c4.4-2 7.3-4.8 6.1-5.9C418 123.3 413.9 128.8 414 131.4z"/><path d="M48.3 49.9L36.5 23.1 24.1 49.9l-1.7 3.6 -6.1 13.1h-4l24.3-52.3 23 52.3h-3.9L49.9 53.4 48.3 49.9z"/><path d="M60 66.8h-4.4L36.5 23.7 22.7 53.5 16.5 66.8h-4.5l24.7-53.1L60 66.8zM55.9 66.3h3.3l-22.6-51.4L12.7 66.3h3.4l7.7-16.5 12.6-27.3L55.9 66.3z"/><path d="M101.3 66.5L79.9 40.5h6.4c3.9 0 7.1-0.5 9.5-1.5 1.8-0.8 3.4-2.1 4.7-3.9 1.3-1.7 2-3.6 2-5.7 0-1.9-0.6-3.6-1.7-5.3 -1.1-1.7-2.7-3-4.8-4.1 -2.1-1.1-4.4-1.6-7.1-1.6H74.4v48.1h-3.6V14.9h18c2.4 0 4.7 0.4 6.8 1.2 2.1 0.8 4 1.9 5.6 3.3 1.5 1.4 2.7 2.9 3.5 4.7 0.8 1.7 1.2 3.5 1.2 5.4 0 2.9-0.9 5.5-2.6 7.8 -1.7 2.3-3.8 4-6.2 5 -1.6 0.7-3.2 1.2-4.8 1.4 -1.6 0.2-3.2 0.3-5 0.3l18.7 22.6h-4.8V66.5z"/><path d="M101.6 67.2l-0.4-0.5L79.3 40.2h6.9c3.9 0 7-0.5 9.4-1.5 1.7-0.8 3.3-2.1 4.6-3.8 1.3-1.7 1.9-3.5 1.9-5.5 0-1.8-0.5-3.5-1.6-5.1 -1.1-1.6-2.6-3-4.7-4 -2-1-4.4-1.6-7-1.6H74.6v48.1h-4.1V14.7h18.3c2.4 0 4.8 0.4 6.9 1.2 2.1 0.8 4 1.9 5.6 3.3 1.6 1.4 2.8 3 3.6 4.8 0.8 1.8 1.3 3.6 1.3 5.5 0 3-0.9 5.6-2.7 8 -1.8 2.3-3.9 4-6.3 5 -1.7 0.7-3.3 1.2-4.9 1.4 -1.4 0.2-2.9 0.3-4.5 0.3l18.7 22.6h-5V67.2zM71.1 66.3h3.1V18.2h14.7c2.7 0 5.2 0.5 7.3 1.6 2.1 1.1 3.7 2.5 4.9 4.2 1.1 1.7 1.7 3.5 1.7 5.4 0 2.1-0.7 4.1-2 5.8 -1.4 1.8-3 3.1-4.8 3.9 -2.5 1-5.7 1.5-9.6 1.5h-5.8l21 25.6h4.1L86.9 43.7h0.5c1.7 0 3.4-0.1 4.9-0.3 1.5-0.2 3.1-0.6 4.7-1.4 2.3-1 4.4-2.6 6.1-4.9 1.7-2.2 2.6-4.8 2.6-7.7 0-1.8-0.4-3.6-1.2-5.3 -0.8-1.7-2-3.3-3.5-4.6 -1.5-1.4-3.4-2.5-5.5-3.2 -2.1-0.8-4.4-1.1-6.7-1.1H71.1V66.3z"/><path d="M142 67.1c-4.7 0-9.1-1.2-13.1-3.6 -4-2.4-7.2-5.6-9.5-9.6 -2.3-4.1-3.5-8.5-3.5-13.2 0-4.8 1.2-9.2 3.5-13.2 2.3-4 5.5-7.2 9.5-9.6 4-2.4 8.4-3.6 13.1-3.6 3.7 0 7.2 0.8 10.5 2.3 3.4 1.5 6.3 3.6 8.9 6.4l-2.8 2.5c-2.1-2.4-4.6-4.2-7.5-5.6 -2.9-1.3-5.9-2-9.1-2 -4.1 0-7.8 1-11.3 3.1 -3.4 2-6.2 4.8-8.2 8.3 -2 3.5-3.1 7.3-3.1 11.4 0 4.1 1 7.9 3.1 11.4 2 3.5 4.8 6.3 8.2 8.3 3.4 2 7.2 3.1 11.3 3.1 3.4 0 6.6-0.7 9.6-2.2 3-1.5 5.7-3.5 7.8-6.2l2.9 2.2c-2.5 3.1-5.5 5.5-9.1 7.3C149.7 66.2 146 67.1 142 67.1z"/><path d="M142 67.4c-4.7 0-9.2-1.2-13.2-3.6 -4.1-2.4-7.3-5.7-9.6-9.7 -2.3-4.1-3.5-8.6-3.5-13.3 0-4.8 1.2-9.3 3.5-13.3 2.3-4 5.6-7.3 9.6-9.7 4-2.4 8.5-3.6 13.2-3.6 3.7 0 7.3 0.8 10.6 2.3 3.4 1.5 6.4 3.7 8.9 6.5l0.2 0.2 -3.2 2.8 -0.2-0.2c-2.1-2.3-4.6-4.2-7.4-5.5 -2.8-1.3-5.9-2-9-2 -4 0-7.8 1-11.1 3 -3.4 2-6.1 4.8-8.1 8.2 -2 3.4-3 7.2-3 11.3 0 4.1 1 7.9 3 11.3 2 3.4 4.8 6.2 8.1 8.2 3.4 2 7.1 3 11.1 3 3.4 0 6.6-0.7 9.5-2.2 3-1.4 5.6-3.5 7.7-6.1l0.2-0.2 3.3 2.5 -0.2 0.2c-2.5 3.1-5.6 5.6-9.1 7.3C149.8 66.5 146 67.4 142 67.4zM142 14.5c-4.6 0-9 1.2-13 3.5 -4 2.4-7.2 5.6-9.4 9.5 -2.3 4-3.5 8.4-3.5 13.1 0 4.7 1.2 9.1 3.5 13.1 2.3 4 5.5 7.2 9.4 9.6 4 2.4 8.3 3.5 13 3.5 3.9 0 7.7-0.9 11.2-2.6 3.4-1.7 6.4-4 8.8-7l-2.5-1.9c-2.2 2.6-4.8 4.6-7.8 6.1 -3 1.5-6.3 2.3-9.8 2.3 -4.1 0-7.9-1-11.4-3.1 -3.5-2-6.3-4.9-8.3-8.4 -2.1-3.5-3.1-7.4-3.1-11.6 0-4.2 1-8 3.1-11.6 2.1-3.5 4.9-6.3 8.3-8.4 3.5-2.1 7.3-3.1 11.4-3.1 3.2 0 6.3 0.7 9.2 2 2.8 1.3 5.3 3.1 7.4 5.4l2.4-2.1c-2.5-2.6-5.4-4.7-8.6-6.1C149.1 15.3 145.6 14.5 142 14.5z"/><path d="M208.2 42.6h-30.5v24h-3.7V38.9 14.9h3.7v24h30.5V14.9h3.6v25.7 25.9h-3.6V42.6z"/><path d="M212 66.8h-4.1V42.8h-30v24h-4.2V14.7h4.2v24h30V14.7h4.1V66.8zM208.4 66.3h3.1V15.2h-3.1v24h-31V15.2h-3.2v51.1h3.2V42.3h31V66.3z"/><path d="M228 66.5V14.9h3.6v51.6H228z"/><path d="M231.8 66.8h-4.1V14.7h4.1V66.8zM228.3 66.3h3.1V15.2h-3.1V66.3z"/><path d="M288.2 14.9v3.7h-20.4v48h-3.7V18.6h-20.5v-3.7H288.2z"/><path d="M268.1 66.8h-4.2V18.8h-20.5v-4.2h45.1v4.2h-20.4V66.8zM264.4 66.3h3.2V18.3h20.4v-3.2h-44.1v3.2h20.5V66.3z"/><path d="M299.7 66.5V14.9h33.4v3.7h-29.9v20.3h23.3v3.7h-23.3v20.3h29.9v3.7H299.7z"/><path d="M333.4 66.8h-33.9V14.7h33.9v4.2h-29.9v19.8h23.3v4.2h-23.3v19.8h29.9V66.8zM300 66.3h32.9v-3.2h-29.9V42.3h23.3v-3.2h-23.3V18.3h29.9v-3.2h-32.9V66.3z"/><path d="M369.6 67.1c-4.7 0-9.1-1.2-13.1-3.6 -4-2.4-7.2-5.6-9.5-9.6 -2.3-4.1-3.5-8.5-3.5-13.2 0-4.8 1.2-9.2 3.5-13.2 2.3-4 5.5-7.2 9.5-9.6 4-2.4 8.4-3.6 13.1-3.6 3.7 0 7.2 0.8 10.5 2.3 3.4 1.5 6.3 3.6 8.9 6.4l-2.8 2.5c-2.1-2.4-4.6-4.2-7.5-5.6 -2.9-1.3-5.9-2-9.1-2 -4.1 0-7.8 1-11.3 3.1 -3.4 2-6.2 4.8-8.2 8.3 -2 3.5-3.1 7.3-3.1 11.4 0 4.1 1 7.9 3.1 11.4 2 3.5 4.8 6.3 8.2 8.3 3.4 2 7.2 3.1 11.3 3.1 3.4 0 6.6-0.7 9.7-2.2 3-1.5 5.7-3.5 7.8-6.2l2.9 2.2c-2.5 3.1-5.5 5.5-9 7.3C377.4 66.2 373.6 67.1 369.6 67.1z"/><path d="M369.6 67.4c-4.7 0-9.2-1.2-13.2-3.6 -4.1-2.4-7.3-5.7-9.6-9.7 -2.3-4.1-3.5-8.6-3.5-13.3 0-4.8 1.2-9.3 3.5-13.3 2.3-4 5.6-7.3 9.6-9.7 4-2.4 8.5-3.6 13.2-3.6 3.7 0 7.3 0.8 10.6 2.3 3.4 1.5 6.4 3.7 8.9 6.5l0.2 0.2 -3.2 2.8 -0.2-0.2c-2.1-2.3-4.6-4.2-7.4-5.5 -2.8-1.3-5.9-2-9-2 -4 0-7.8 1-11.1 3 -3.4 2-6.1 4.8-8.1 8.2 -2 3.4-3 7.2-3 11.3 0 4.1 1 7.9 3 11.3 2 3.4 4.8 6.2 8.1 8.2 3.4 2 7.1 3 11.1 3 3.3 0 6.6-0.7 9.5-2.2 3-1.4 5.6-3.5 7.7-6.1l0.2-0.2 3.2 2.5 -0.2 0.2c-2.5 3.1-5.6 5.6-9.1 7.3C377.5 66.5 373.6 67.4 369.6 67.4zM369.6 14.5c-4.6 0-9 1.2-13 3.5 -4 2.4-7.1 5.6-9.4 9.5 -2.3 4-3.5 8.4-3.5 13.1 0 4.7 1.2 9.1 3.5 13.1 2.3 4 5.5 7.2 9.4 9.6 4 2.4 8.3 3.5 13 3.5 3.9 0 7.7-0.9 11.2-2.6 3.4-1.7 6.4-4 8.8-7l-2.5-1.9c-2.2 2.6-4.8 4.6-7.8 6.1 -3.1 1.5-6.3 2.3-9.8 2.3 -4.1 0-7.9-1-11.4-3.1 -3.5-2-6.3-4.9-8.3-8.4 -2.1-3.5-3.1-7.4-3.1-11.6 0-4.2 1-8 3.1-11.6 2.1-3.5 4.9-6.3 8.3-8.4 3.5-2.1 7.3-3.1 11.4-3.1 3.2 0 6.3 0.7 9.2 2 2.8 1.3 5.3 3.1 7.4 5.4l2.4-2.1c-2.5-2.6-5.4-4.7-8.6-6.1C376.8 15.3 373.3 14.5 369.6 14.5z"/><path d="M442.8 14.9v3.7h-20.4v48h-3.7V18.6h-20.5v-3.7H442.8z"/><path d="M422.6 66.8h-4.2V18.8h-20.5v-4.2h45.1v4.2h-20.4V66.8zM419 66.3h3.2V18.3h20.4v-3.2h-44.1v3.2h20.5V66.3z"/><path d="M474 67.1c-2.6 0-5.1-0.5-7.5-1.5 -2.4-1-4.5-2.5-6.4-4.4 -1.9-1.8-3.3-3.9-4.2-6.4 -1-2.4-1.5-5-1.5-7.7V14.9h3.6v32.2c0 2.2 0.4 4.3 1.2 6.4 0.8 2 2 3.8 3.5 5.2 1.5 1.5 3.3 2.7 5.2 3.5 2 0.8 4 1.2 6.1 1.2 2.2 0 4.2-0.4 6.2-1.2 2-0.8 3.7-2 5.2-3.5 1.5-1.5 2.6-3.2 3.5-5.2 0.8-2 1.2-4.1 1.2-6.4V14.9h3.6v32.2c0 2.7-0.5 5.3-1.5 7.7 -1 2.4-2.4 4.6-4.3 6.4 -1.9 1.9-4 3.4-6.4 4.4C479.3 66.6 476.7 67.1 474 67.1z"/><path d="M474 67.4c-2.6 0-5.2-0.5-7.6-1.6 -2.4-1-4.6-2.6-6.5-4.5 -1.9-1.8-3.3-4-4.3-6.4 -1-2.4-1.5-5.1-1.5-7.8V14.7h4.1v32.4c0 2.2 0.4 4.3 1.2 6.3 0.8 2 2 3.7 3.4 5.2 1.5 1.5 3.3 2.7 5.2 3.5 1.9 0.8 3.9 1.2 6 1.2 2.1 0 4.2-0.4 6.1-1.2 1.9-0.8 3.7-2 5.2-3.5 1.4-1.4 2.6-3.2 3.4-5.2 0.8-2 1.2-4.1 1.2-6.3V14.7h4.1v32.4c0 2.7-0.5 5.4-1.5 7.8 -1 2.5-2.4 4.6-4.3 6.4 -1.9 1.9-4 3.4-6.4 4.5C479.3 66.8 476.7 67.4 474 67.4zM454.7 15.2v31.9c0 2.7 0.5 5.2 1.4 7.6 1 2.4 2.4 4.5 4.2 6.3 1.8 1.9 3.9 3.3 6.3 4.4 2.4 1 4.9 1.5 7.4 1.5 2.7 0 5.2-0.5 7.5-1.5 2.3-1 4.5-2.5 6.3-4.4 1.8-1.8 3.2-3.9 4.2-6.3 1-2.4 1.4-5 1.4-7.6V15.2H490.4v31.9c0 2.3-0.4 4.4-1.2 6.5 -0.8 2-2 3.8-3.5 5.3 -1.6 1.6-3.3 2.8-5.3 3.6 -2 0.8-4.1 1.2-6.3 1.2 -2.1 0-4.2-0.4-6.2-1.2 -2-0.8-3.8-2-5.3-3.6 -1.5-1.5-2.7-3.3-3.5-5.3 -0.8-2-1.2-4.2-1.2-6.4V15.2H454.7z"/><path d="M538.8 66.5l-21.4-26.1h6.4c3.9 0 7.1-0.5 9.5-1.5 1.8-0.8 3.4-2.1 4.7-3.9 1.3-1.7 2-3.6 2-5.7 0-1.9-0.6-3.6-1.7-5.3 -1.1-1.7-2.7-3-4.8-4.1 -2.1-1.1-4.4-1.6-7.1-1.6H511.8v48.1h-3.6V14.9h18c2.4 0 4.7 0.4 6.8 1.2 2.1 0.8 4 1.9 5.6 3.3 1.5 1.4 2.7 2.9 3.5 4.7 0.8 1.7 1.2 3.5 1.2 5.4 0 2.9-0.9 5.5-2.6 7.8 -1.7 2.3-3.8 4-6.2 5 -1.6 0.7-3.2 1.2-4.8 1.4 -1.6 0.2-3.2 0.3-5 0.3l18.7 22.6h-4.8V66.5z"/><path d="M539 67.2l-0.4-0.5 -21.8-26.5h6.9c3.9 0 7-0.5 9.4-1.5 1.7-0.8 3.3-2.1 4.6-3.8 1.3-1.7 1.9-3.5 1.9-5.5 0-1.8-0.5-3.5-1.6-5.1 -1.1-1.6-2.6-3-4.7-4 -2-1-4.4-1.6-7-1.6H512.1v48.1h-4.1V14.7h18.3c2.4 0 4.8 0.4 6.9 1.2 2.1 0.8 4 1.9 5.6 3.3 1.6 1.4 2.8 3 3.6 4.8 0.8 1.8 1.3 3.6 1.3 5.5 0 3-0.9 5.6-2.7 8 -1.8 2.3-3.9 4-6.3 5 -1.7 0.8-3.3 1.2-4.9 1.4 -1.4 0.2-2.9 0.3-4.5 0.3l18.7 22.6h-5V67.2zM508.5 66.3h3.1V18.2h14.7c2.7 0 5.2 0.5 7.3 1.6 2.1 1.1 3.7 2.5 4.9 4.2 1.1 1.7 1.7 3.5 1.7 5.4 0 2.1-0.7 4.1-2 5.8 -1.3 1.7-3 3.1-4.8 3.9 -2.5 1-5.7 1.5-9.6 1.5h-5.8l21 25.6H543L524.3 43.7h0.5c1.7 0 3.4-0.1 4.9-0.3 1.5-0.2 3.1-0.6 4.7-1.4 2.3-1 4.4-2.6 6.1-4.9 1.7-2.2 2.6-4.8 2.6-7.7 0-1.8-0.4-3.6-1.2-5.3 -0.8-1.7-2-3.3-3.5-4.6 -1.6-1.4-3.4-2.5-5.5-3.2 -2.1-0.8-4.4-1.1-6.7-1.1h-17.8V66.3z"/><path d="M557.4 66.5V14.9h33.4v3.7h-29.9v20.3h23.3v3.7h-23.3v20.3h29.9v3.7H557.4z"/><path d="M591 66.8h-33.9V14.7h33.9v4.2h-29.9v19.8h23.3v4.2h-23.3v19.8h29.9V66.8zM557.6 66.3h32.9v-3.2h-29.9V42.3h23.3v-3.2h-23.3V18.3h29.9v-3.2h-32.9V66.3z"/><path d="M155.3 85.2c0-4.8 0.3-8.6 0.9-10.9 0.2-0.6 0.7-1 1.6-0.7 0.8 0.2 2.8 1.9 2.7 2.5 -0.4 2.7-0.5 6-0.5 9.7 0 20.3 5.3 53.1 12.8 68.3 1.7 3.2 3.2 5.5 5.1 6.7l0.1 0.1c13.8 2 38.1-59.8 45.2-89.6 0.3-0.5 0.7-3.6 1.8-2.9 1 0.4 1.3 3.3 0.9 5.8 -2 11.1-25.8 89.9-45.3 89.4 -0.7 0-4.8-0.8-5.5-1.5C162.3 152.7 155.3 108 155.3 85.2z" class="a"/><path d="M223.7 132.5c-0.3-0.9-0.5-2-0.5-3 0-4.6 3.1-9.2 8.2-9.4 3.2 0 6.2 3.1 5.1 6.1 -1.3 3.3-5.8 5.8-9.4 5.8 0.3 2 3.9 5.3 7.6 5.3 9.8 0 17-7.3 21.4-11.8 2.4-2.5 2-0.1 0.5 2.8 -2.9 6-9.5 11.1-16.7 11.5C233.7 140 225.8 138.9 223.7 132.5zM226.9 129.4c4.4-2 7.3-4.8 6.1-5.9C230.9 121.3 226.8 126.8 226.9 129.4zM228.8 115.2c1.1-1.5 6.3-4.4 8.1-5.8 0.9-0.7 4.4 1.3 3.4 2.7 -7.1 4.3-9.8 6-11.2 4.9C228.1 116.4 228.4 115.5 228.8 115.2z" class="a"/><path d="M252.4 164.9c1.6-8 9.9-17.7 20.3-25.5l2.6-1.9 -0.1-0.4 -0.2-8.5v-0.5l-0.3 0.2c-0.9 1.1-2.2 2.4-3.5 3.5 -1.8 1.5-3.5 2.8-5.3 3.6 -0.9 0.3-2.1 0.7-3.4 0.7 -0.9 0-2-0.2-3-0.7 -0.4-0.2-0.7-0.4-0.9-0.6 -1.2-0.9-2.3-2-3-3 -0.9-1.3-1.3-2.7-1.3-3.9 0-1.5 0.5-2.9 1.6-3.9 1.8-1.3 3.7-2.4 7.2-2.4 2.7 0 6.1 0.6 10 2.1l0.1 0.1 0.2-0.1c0.7-0.9 1.1-1.8 1.5-2.2 0.6-1 3.5 0.6 3.6 2.1 0.1 0.2 0.6 5.1 0.7 11.1v0.4l0.1-0.1c2.8-1.7 16.4-7.9 18.4-6.5 1 0.7 0.8 1 0 1.2 -4.1 1.2-11 5-15.4 7.6l-3 2.1 -0.1 1.2 -0.3 9.7c-0.8 13.1-4.2 26.7-13.2 28.5 -2.6 0.5-6.2-0.5-9.1-3.4C253.5 172.4 251.9 168.7 252.4 164.9zM275 142.1l-2.2 1.9c-8.8 7.3-15.5 16.1-16.6 23 -0.6 3.2 0.9 5.8 2.2 7.3 1.6 1.5 3.5 2.3 4.8 2C272.2 174.4 275.2 155.5 275 142.1zM262.9 132.5c1.5-0.7 3.3-2 5-3.4l2.3-2.2 1-1.1 -0.7-0.2c-2-0.5-3.7-0.8-5.3-0.8 -2.8 0-4.9 0.8-6 2 -0.8 0.9-1.1 1.9-1.1 2.9 0 1 0.4 2.1 1 2.9l0.7 0.5c0 0 0.2 0.1 0.8 0.1C261.3 133.1 262 132.9 262.9 132.5z" class="a"/><path d="M293.7 132.5c-0.3-0.9-0.5-2-0.5-3 0-4.6 3.1-9.2 8.2-9.4 3.2 0 6.2 3.1 5.1 6.1 -1.3 3.3-5.8 5.8-9.4 5.8 0.3 2 3.9 5.3 7.6 5.3 9.8 0 17-7.3 21.4-11.8 2.4-2.5 2-0.1 0.5 2.8 -2.9 6-9.5 11.1-16.7 11.5C303.6 140 295.7 138.9 293.7 132.5zM296.9 129.4c4.4-2 7.3-4.8 6.1-5.9C300.8 121.3 296.8 126.8 296.9 129.4zM298.8 115.2c1.1-1.5 6.3-4.4 8.1-5.8 0.9-0.7 4.4 1.3 3.4 2.7 -7.1 4.3-9.8 6-11.2 4.9C298 116.4 298.3 115.5 298.8 115.2z" class="a"/><path d="M325.3 134.4c0-6 0.1-11.6 0.2-15.7 0.1-4.9 0.3-11 0.6-17.3 -8.6 0.7-16.7 1.3-25 2.8 -2 0.3-4.2-2.4-2.4-2.8 7.4-1.3 14.7-2.2 27.5-3.2 0.4-8.1 0.9-16.3 1.4-22.7 -0.1-1.7 3.9-1 4.3 1 -0.7 5.2-1.3 13.3-1.8 21.4 0.9 0 2-0.1 3-0.2 8.8-0.6 20.7-1.6 30.8-1.6 5.9 0 11.3 0.3 15 1.1 0.9 0.4 2 1.5 2.4 2.1 0.1 0.8-0.4 1.2-1.2 1.1 -4.7-0.9-10.5-1.2-16.7-1.2 -11.1 0-23.2 1-31.1 1.7 -0.8 0.1-1.6 0.2-2.4 0.2l-0.7 17.4c-0.1 6.6-0.4 16.4-0.4 25.8 0 10.6 0.4 20.8 1.8 25.6 0.3 2.4-2.9 0.2-3.6-2C325.7 164.4 325.3 148.3 325.3 134.4z" class="a"/><path d="M337.9 130.9c0-2.3 1.1-4.6 3.7-6.3 2.8-1.9 6.3-2.8 10-2.8 2.9 0 5.8 0.6 8.4 1.8h0.1l1.8-2.4c0.6-1.1 4.2 1.1 3.4 2.4 -0.5 1.6-1.5 3.4-1.7 5.4 -0.1 1.8 0.4 3.8 2.3 4.4 5.3 1 14.2-4.3 18-8.4 1.8-1.8 3.3 0.8-2.4 6.5 -2.6 2.6-9.8 5.9-14.1 4.9 -3.4-0.8-6-2.8-7.4-6.5 -2.9 2.6-9.8 7.9-15.3 7.9 -1.3 0-2.6-0.3-3.7-1C338.9 135 337.9 133.1 337.9 130.9zM358.2 125.6c-1-0.3-2.5-0.5-4-0.5 -5.2 0-12 2-13.2 6.7 -0.3 1.2 0.3 2.4 1.9 2.5C347.8 133.7 354.6 129.4 358.2 125.6z" class="a"/><path d="M384.2 140.1c-2-3.1-2.7-10.5-2.7-19.1 0-17.2 2.9-39.5 4.3-43.9 0.1-0.6 0.7-0.7 1.8-0.3 1 0.5 1.9 1.4 1.9 1.9 -0.6 2-3.6 26.9-3.6 44.8 0 9.2 0.8 16.6 3.1 18.2 5.4 3.3 18-13.6 19.5-15.6 1-1.5 1.2 1.1 0.8 2.4 -1.9 5.2-10.2 16.4-16.7 16.4C389.1 144.9 386.2 143 384.2 140.1z" class="a"/><path d="M407.8 132.5c-0.3-0.9-0.5-2-0.5-3 0-4.6 3.1-9.2 8.2-9.4 3.2 0 6.2 3.1 5.1 6.1 -1.3 3.3-5.8 5.8-9.4 5.8 0.3 2 3.9 5.3 7.6 5.3 9.8 0 17-7.3 21.4-11.8 2.4-2.5 2-0.1 0.5 2.8 -2.9 6-9.5 11.1-16.7 11.5C417.8 140 409.9 138.9 407.8 132.5zM411 129.4c4.4-2 7.3-4.8 6.1-5.9C415 121.3 410.9 126.8 411 129.4z" class="a"/><path d="M45.3 47.9L33.5 21.1 21.1 47.9l-1.7 3.6 -6.1 13.1H9.3l24.3-52.3 23 52.3h-3.9L46.9 51.4 45.3 47.9z" class="a"/><path d="M57 64.8h-4.4L33.5 21.7 19.7 51.5 13.5 64.8H9l24.7-53.1L57 64.8zM52.9 64.3h3.3l-22.6-51.4L9.7 64.3h3.4l7.7-16.5 12.6-27.3L52.9 64.3z" class="a"/><path d="M98.3 64.5L76.9 38.5h6.4c3.9 0 7.1-0.5 9.5-1.5 1.8-0.8 3.4-2.1 4.7-3.9 1.3-1.7 2-3.6 2-5.7 0-1.9-0.6-3.6-1.7-5.3 -1.1-1.7-2.7-3-4.8-4.1 -2.1-1.1-4.4-1.6-7.1-1.6H71.4v48.1h-3.6V12.9h18c2.4 0 4.7 0.4 6.8 1.2 2.1 0.8 4 1.9 5.6 3.3 1.5 1.4 2.7 2.9 3.5 4.7 0.8 1.7 1.2 3.5 1.2 5.4 0 2.9-0.9 5.5-2.6 7.8 -1.7 2.3-3.8 4-6.2 5 -1.6 0.7-3.2 1.2-4.8 1.4 -1.6 0.2-3.2 0.3-5 0.3l18.7 22.6h-4.8V64.5z" class="a"/><path d="M98.6 65.2l-0.4-0.5L76.3 38.2h6.9c3.9 0 7-0.5 9.4-1.5 1.7-0.8 3.3-2.1 4.6-3.8 1.3-1.7 1.9-3.5 1.9-5.5 0-1.8-0.5-3.5-1.6-5.1 -1.1-1.6-2.6-3-4.7-4 -2-1-4.4-1.6-7-1.6H71.6v48.1h-4.1V12.7h18.3c2.4 0 4.8 0.4 6.9 1.2 2.1 0.8 4 1.9 5.6 3.3 1.6 1.4 2.8 3 3.6 4.8 0.8 1.8 1.3 3.6 1.3 5.5 0 3-0.9 5.6-2.7 8 -1.8 2.3-3.9 4-6.3 5 -1.7 0.7-3.3 1.2-4.9 1.4 -1.4 0.2-2.9 0.3-4.5 0.3l18.7 22.6h-5V65.2zM68.1 64.3h3.1V16.2h14.7c2.7 0 5.2 0.5 7.3 1.6 2.1 1.1 3.7 2.5 4.9 4.2 1.1 1.7 1.7 3.5 1.7 5.4 0 2.1-0.7 4.1-2 5.8 -1.4 1.8-3 3.1-4.8 3.9 -2.5 1-5.7 1.5-9.6 1.5h-5.8L98.4 64.3h4.1L83.9 41.7h0.5c1.7 0 3.4-0.1 4.9-0.3 1.5-0.2 3.1-0.6 4.7-1.4 2.3-1 4.4-2.6 6.1-4.9 1.7-2.2 2.6-4.8 2.6-7.7 0-1.8-0.4-3.6-1.2-5.3 -0.8-1.7-2-3.3-3.5-4.6 -1.5-1.4-3.4-2.5-5.5-3.2 -2.1-0.8-4.4-1.1-6.7-1.1H68.1V64.3z" class="a"/><path d="M139 65.1c-4.7 0-9.1-1.2-13.1-3.6 -4-2.4-7.2-5.6-9.5-9.6 -2.3-4.1-3.5-8.5-3.5-13.2 0-4.8 1.2-9.2 3.5-13.2 2.3-4 5.5-7.2 9.5-9.6 4-2.4 8.4-3.6 13.1-3.6 3.7 0 7.2 0.8 10.5 2.3 3.4 1.5 6.3 3.6 8.9 6.4l-2.8 2.5c-2.1-2.4-4.6-4.2-7.5-5.6 -2.9-1.3-5.9-2-9.1-2 -4.1 0-7.8 1-11.3 3.1 -3.4 2-6.2 4.8-8.2 8.3 -2 3.5-3.1 7.3-3.1 11.4 0 4.1 1 7.9 3.1 11.4 2 3.5 4.8 6.3 8.2 8.3 3.4 2 7.2 3.1 11.3 3.1 3.4 0 6.6-0.7 9.6-2.2 3-1.5 5.7-3.5 7.8-6.2l2.9 2.2c-2.5 3.1-5.5 5.5-9.1 7.3C146.7 64.2 143 65.1 139 65.1z" class="a"/><path d="M139 65.4c-4.7 0-9.2-1.2-13.2-3.6 -4.1-2.4-7.3-5.7-9.6-9.7 -2.3-4.1-3.5-8.6-3.5-13.3 0-4.8 1.2-9.3 3.5-13.3 2.3-4 5.6-7.3 9.6-9.7 4-2.4 8.5-3.6 13.2-3.6 3.7 0 7.3 0.8 10.6 2.3 3.4 1.5 6.4 3.7 8.9 6.5l0.2 0.2 -3.2 2.8 -0.2-0.2c-2.1-2.3-4.6-4.2-7.4-5.5 -2.8-1.3-5.9-2-9-2 -4 0-7.8 1-11.1 3 -3.4 2-6.1 4.8-8.1 8.2 -2 3.4-3 7.2-3 11.3 0 4.1 1 7.9 3 11.3 2 3.4 4.8 6.2 8.1 8.2 3.4 2 7.1 3 11.1 3 3.4 0 6.6-0.7 9.5-2.2 3-1.4 5.6-3.5 7.7-6.1l0.2-0.2 3.3 2.5 -0.2 0.2c-2.5 3.1-5.6 5.6-9.1 7.3C146.8 64.5 143 65.4 139 65.4zM139 12.5c-4.6 0-9 1.2-13 3.5 -4 2.4-7.2 5.6-9.4 9.5 -2.3 4-3.5 8.4-3.5 13.1 0 4.7 1.2 9.1 3.5 13.1 2.3 4 5.5 7.2 9.4 9.6 4 2.4 8.3 3.5 13 3.5 3.9 0 7.7-0.9 11.2-2.6 3.4-1.7 6.4-4 8.8-7l-2.5-1.9c-2.2 2.6-4.8 4.6-7.8 6.1 -3 1.5-6.3 2.3-9.8 2.3 -4.1 0-7.9-1-11.4-3.1 -3.5-2-6.3-4.9-8.3-8.4 -2.1-3.5-3.1-7.4-3.1-11.6 0-4.2 1-8 3.1-11.6 2.1-3.5 4.9-6.3 8.3-8.4 3.5-2.1 7.3-3.1 11.4-3.1 3.2 0 6.3 0.7 9.2 2 2.8 1.3 5.3 3.1 7.4 5.4l2.4-2.1c-2.5-2.6-5.4-4.7-8.6-6.1C146.1 13.3 142.6 12.5 139 12.5z" class="a"/><path d="M205.2 40.6h-30.5v24h-3.7V36.9 12.9h3.7v24h30.5V12.9h3.6v25.7 25.9h-3.6V40.6z" class="a"/><path d="M209 64.8h-4.1V40.8h-30v24h-4.2V12.7h4.2v24h30V12.7h4.1V64.8zM205.4 64.3h3.1V13.2h-3.1v24h-31V13.2h-3.2v51.1h3.2V40.3h31V64.3z" class="a"/><path d="M225 64.5V12.9h3.6v51.6H225z" class="a"/><path d="M228.8 64.8h-4.1V12.7h4.1V64.8zM225.3 64.3h3.1V13.2h-3.1V64.3z" class="a"/><path d="M285.2 12.9v3.7h-20.4v48h-3.7V16.6h-20.5v-3.7H285.2z" class="a"/><path d="M265.1 64.8h-4.2V16.8h-20.5v-4.2h45.1v4.2h-20.4V64.8zM261.4 64.3h3.2V16.3h20.4v-3.2h-44.1v3.2h20.5V64.3z" class="a"/><path d="M296.7 64.5V12.9h33.4v3.7h-29.9v20.3h23.3v3.7h-23.3v20.3h29.9v3.7H296.7z" class="a"/><path d="M330.4 64.8h-33.9V12.7h33.9v4.2h-29.9v19.8h23.3v4.2h-23.3v19.8h29.9V64.8zM297 64.3h32.9v-3.2h-29.9V40.3h23.3v-3.2h-23.3V16.3h29.9v-3.2h-32.9V64.3z" class="a"/><path d="M366.6 65.1c-4.7 0-9.1-1.2-13.1-3.6 -4-2.4-7.2-5.6-9.5-9.6 -2.3-4.1-3.5-8.5-3.5-13.2 0-4.8 1.2-9.2 3.5-13.2 2.3-4 5.5-7.2 9.5-9.6 4-2.4 8.4-3.6 13.1-3.6 3.7 0 7.2 0.8 10.5 2.3 3.4 1.5 6.3 3.6 8.9 6.4l-2.8 2.5c-2.1-2.4-4.6-4.2-7.5-5.6 -2.9-1.3-5.9-2-9.1-2 -4.1 0-7.8 1-11.3 3.1 -3.4 2-6.2 4.8-8.2 8.3 -2 3.5-3.1 7.3-3.1 11.4 0 4.1 1 7.9 3.1 11.4 2 3.5 4.8 6.3 8.2 8.3 3.4 2 7.2 3.1 11.3 3.1 3.4 0 6.6-0.7 9.7-2.2 3-1.5 5.7-3.5 7.8-6.2l2.9 2.2c-2.5 3.1-5.5 5.5-9 7.3C374.4 64.2 370.6 65.1 366.6 65.1z" class="a"/><path d="M366.6 65.4c-4.7 0-9.2-1.2-13.2-3.6 -4.1-2.4-7.3-5.7-9.6-9.7 -2.3-4.1-3.5-8.6-3.5-13.3 0-4.8 1.2-9.3 3.5-13.3 2.3-4 5.6-7.3 9.6-9.7 4-2.4 8.5-3.6 13.2-3.6 3.7 0 7.3 0.8 10.6 2.3 3.4 1.5 6.4 3.7 8.9 6.5l0.2 0.2 -3.2 2.8 -0.2-0.2c-2.1-2.3-4.6-4.2-7.4-5.5 -2.8-1.3-5.9-2-9-2 -4 0-7.8 1-11.1 3 -3.4 2-6.1 4.8-8.1 8.2 -2 3.4-3 7.2-3 11.3 0 4.1 1 7.9 3 11.3 2 3.4 4.8 6.2 8.1 8.2 3.4 2 7.1 3 11.1 3 3.3 0 6.6-0.7 9.5-2.2 3-1.4 5.6-3.5 7.7-6.1l0.2-0.2 3.2 2.5 -0.2 0.2c-2.5 3.1-5.6 5.6-9.1 7.3C374.5 64.5 370.6 65.4 366.6 65.4zM366.6 12.5c-4.6 0-9 1.2-13 3.5 -4 2.4-7.1 5.6-9.4 9.5 -2.3 4-3.5 8.4-3.5 13.1 0 4.7 1.2 9.1 3.5 13.1 2.3 4 5.5 7.2 9.4 9.6 4 2.4 8.3 3.5 13 3.5 3.9 0 7.7-0.9 11.2-2.6 3.4-1.7 6.4-4 8.8-7l-2.5-1.9c-2.2 2.6-4.8 4.6-7.8 6.1 -3.1 1.5-6.3 2.3-9.8 2.3 -4.1 0-7.9-1-11.4-3.1 -3.5-2-6.3-4.9-8.3-8.4 -2.1-3.5-3.1-7.4-3.1-11.6 0-4.2 1-8 3.1-11.6 2.1-3.5 4.9-6.3 8.3-8.4 3.5-2.1 7.3-3.1 11.4-3.1 3.2 0 6.3 0.7 9.2 2 2.8 1.3 5.3 3.1 7.4 5.4l2.4-2.1c-2.5-2.6-5.4-4.7-8.6-6.1C373.8 13.3 370.3 12.5 366.6 12.5z" class="a"/><path d="M439.8 12.9v3.7h-20.4v48h-3.7V16.6h-20.5v-3.7H439.8z" class="a"/><path d="M419.6 64.8h-4.2V16.8h-20.5v-4.2h45.1v4.2h-20.4V64.8zM416 64.3h3.2V16.3h20.4v-3.2h-44.1v3.2h20.5V64.3z" class="a"/><path d="M471 65.1c-2.6 0-5.1-0.5-7.5-1.5 -2.4-1-4.5-2.5-6.4-4.4 -1.9-1.8-3.3-3.9-4.2-6.4 -1-2.4-1.5-5-1.5-7.7V12.9h3.6v32.2c0 2.2 0.4 4.3 1.2 6.4 0.8 2 2 3.8 3.5 5.2 1.5 1.5 3.3 2.7 5.2 3.5 2 0.8 4 1.2 6.1 1.2 2.2 0 4.2-0.4 6.2-1.2 2-0.8 3.7-2 5.2-3.5 1.5-1.5 2.6-3.2 3.5-5.2 0.8-2 1.2-4.1 1.2-6.4V12.9h3.6v32.2c0 2.7-0.5 5.3-1.5 7.7 -1 2.4-2.4 4.6-4.3 6.4 -1.9 1.9-4 3.4-6.4 4.4C476.3 64.6 473.7 65.1 471 65.1z" class="a"/><path d="M471 65.4c-2.6 0-5.2-0.5-7.6-1.6 -2.4-1-4.6-2.6-6.5-4.5 -1.9-1.8-3.3-4-4.3-6.4 -1-2.4-1.5-5.1-1.5-7.8V12.7h4.1v32.4c0 2.2 0.4 4.3 1.2 6.3 0.8 2 2 3.7 3.4 5.2 1.5 1.5 3.3 2.7 5.2 3.5 1.9 0.8 3.9 1.2 6 1.2 2.1 0 4.2-0.4 6.1-1.2 1.9-0.8 3.7-2 5.2-3.5 1.4-1.4 2.6-3.2 3.4-5.2 0.8-2 1.2-4.1 1.2-6.3V12.7h4.1v32.4c0 2.7-0.5 5.4-1.5 7.8 -1 2.5-2.4 4.6-4.3 6.4 -1.9 1.9-4 3.4-6.4 4.5C476.3 64.8 473.7 65.4 471 65.4zM451.7 13.2v31.9c0 2.7 0.5 5.2 1.4 7.6 1 2.4 2.4 4.5 4.2 6.3 1.8 1.9 3.9 3.3 6.3 4.4 2.4 1 4.9 1.5 7.4 1.5 2.7 0 5.2-0.5 7.5-1.5 2.3-1 4.5-2.5 6.3-4.4 1.8-1.8 3.2-3.9 4.2-6.3 1-2.4 1.4-5 1.4-7.6V13.2H487.4v31.9c0 2.3-0.4 4.4-1.2 6.5 -0.8 2-2 3.8-3.5 5.3 -1.6 1.6-3.3 2.8-5.3 3.6 -2 0.8-4.1 1.2-6.3 1.2 -2.1 0-4.2-0.4-6.2-1.2 -2-0.8-3.8-2-5.3-3.6 -1.5-1.5-2.7-3.3-3.5-5.3 -0.8-2-1.2-4.2-1.2-6.4V13.2H451.7z" class="a"/><path d="M535.8 64.5l-21.4-26.1h6.4c3.9 0 7.1-0.5 9.5-1.5 1.8-0.8 3.4-2.1 4.7-3.9 1.3-1.7 2-3.6 2-5.7 0-1.9-0.6-3.6-1.7-5.3 -1.1-1.7-2.7-3-4.8-4.1 -2.1-1.1-4.4-1.6-7.1-1.6H508.8v48.1h-3.6V12.9h18c2.4 0 4.7 0.4 6.8 1.2 2.1 0.8 4 1.9 5.6 3.3 1.5 1.4 2.7 2.9 3.5 4.7 0.8 1.7 1.2 3.5 1.2 5.4 0 2.9-0.9 5.5-2.6 7.8 -1.7 2.3-3.8 4-6.2 5 -1.6 0.7-3.2 1.2-4.8 1.4 -1.6 0.2-3.2 0.3-5 0.3l18.7 22.6h-4.8V64.5z" class="a"/><path d="M536 65.2l-0.4-0.5 -21.8-26.5h6.9c3.9 0 7-0.5 9.4-1.5 1.7-0.8 3.3-2.1 4.6-3.8 1.3-1.7 1.9-3.5 1.9-5.5 0-1.8-0.5-3.5-1.6-5.1 -1.1-1.6-2.6-3-4.7-4 -2-1-4.4-1.6-7-1.6H509.1v48.1h-4.1V12.7h18.3c2.4 0 4.8 0.4 6.9 1.2 2.1 0.8 4 1.9 5.6 3.3 1.6 1.4 2.8 3 3.6 4.8 0.8 1.8 1.3 3.6 1.3 5.5 0 3-0.9 5.6-2.7 8 -1.8 2.3-3.9 4-6.3 5 -1.7 0.8-3.3 1.2-4.9 1.4 -1.4 0.2-2.9 0.3-4.5 0.3l18.7 22.6h-5V65.2zM505.5 64.3h3.1V16.2h14.7c2.7 0 5.2 0.5 7.3 1.6 2.1 1.1 3.7 2.5 4.9 4.2 1.1 1.7 1.7 3.5 1.7 5.4 0 2.1-0.7 4.1-2 5.8 -1.3 1.7-3 3.1-4.8 3.9 -2.5 1-5.7 1.5-9.6 1.5h-5.8l21 25.6H540L521.3 41.7h0.5c1.7 0 3.4-0.1 4.9-0.3 1.5-0.2 3.1-0.6 4.7-1.4 2.3-1 4.4-2.6 6.1-4.9 1.7-2.2 2.6-4.8 2.6-7.7 0-1.8-0.4-3.6-1.2-5.3 -0.8-1.7-2-3.3-3.5-4.6 -1.6-1.4-3.4-2.5-5.5-3.2 -2.1-0.8-4.4-1.1-6.7-1.1h-17.8V64.3z" class="a"/><path d="M554.4 64.5V12.9h33.4v3.7h-29.9v20.3h23.3v3.7h-23.3v20.3h29.9v3.7H554.4z" class="a"/><path d="M588 64.8h-33.9V12.7h33.9v4.2h-29.9v19.8h23.3v4.2h-23.3v19.8h29.9V64.8zM554.6 64.3h32.9v-3.2h-29.9V40.3h23.3v-3.2h-23.3V16.3h29.9v-3.2h-32.9V64.3z" class="a"/></svg>